<svg width="24" height="24" viewBox="0 0 24 24" xmlns="http://www.w3.org/2000/svg">
  <defs>
    <path id="star-shape" d="M 0 -1 L 0.25 -0.25 L 1 0 L 0.25 0.25 L 0 1 L -0.25 0.25 L -1 0 L -0.25 -0.25 Z" />
  </defs>
  <g transform="translate(18.5, -2) scale(-0.9, 0.9) rotate(20)">
    <g fill="none" stroke="currentColor" stroke-width="0.5" stroke-linecap="round" stroke-linejoin="round">
      <circle cx="12" cy="12" r="9" />
      <path d="M15.9,3.75a9.81,9.81,0,0,1,.85-.5,16.88,16.88,0,0,1,1.58-.75,8.34,8.34,0,0,1,1.36-.4,3.1,3.1,0,0,1,1.09,0,1.43,1.43,0,0,1,.77.37,1.43,1.43,0,0,1,.37.77,3.1,3.1,0,0,1,0,1.09,8.34,8.34,0,0,1-.4,1.36,16.88,16.88,0,0,1-.75,1.58c-.3.56-.66,1.15-1.07,1.76s-.86,1.24-1.36,1.88-1,1.3-1.63,2-1.2,1.32-1.86,2-1.32,1.28-2,1.86-1.32,1.13-2,1.63-1.27,1-1.88,1.36-1.2.77-1.76,1.07a16.88,16.88,0,0,1-1.58.75,8.34,8.34,0,0,1-1.36.4,3.1,3.1,0,0,1-1.09,0,1.43,1.43,0,0,1-.77-.37,1.43,1.43,0,0,1-.37-.77,3.1,3.1,0,0,1,0-1.09,8.34,8.34,0,0,1,.4-1.36,16.88,16.88,0,0,1,.75-1.58c.3-.56.5-.9.5-.9" />
    </g>
  </g>
  <g fill="currentColor">
    <use href="#star-shape" transform="translate(15.5 10.5) scale(2.0)" />
    <use href="#star-shape" transform="translate(12.5 8.5) scale(1.2)" />
    <use href="#star-shape" transform="translate(15 7) scale(1)" />
  </g>
</svg>
